<svg width="22" height="38" viewBox="0 0 22 38" fill="none" xmlns="http://www.w3.org/2000/svg">
<path d="M19.9742 0.0520671C20.908 0.468604 21.2712 1.19754 21.2193 2.18682C21.2193 3.8009 21.2193 5.41498 21.2193 7.02906C21.2193 8.27868 20.493 9.05968 19.2478 9.05968C18.1583 9.05968 17.1207 9.05968 16.0312 9.05968C15.9793 9.05968 15.8756 9.05968 15.8237 9.05968C15.1493 9.11175 14.9936 9.26795 14.9417 9.99689C14.9417 10.882 14.9417 11.7672 14.9417 12.7044C15.0974 12.7044 15.253 12.7044 15.4087 12.7044C16.7057 12.7044 18.0546 12.7044 19.3516 12.7044C20.2855 12.7044 21.0118 13.4854 21.0118 14.4226C21.0118 16.4532 21.0118 18.4318 21.0118 20.4624C21.0118 21.3996 20.1817 22.1285 19.1441 22.1285C17.8989 22.1285 16.6538 22.1285 15.3568 22.1285C15.2011 22.1285 15.0974 22.1285 14.8898 22.1285V22.5971C14.8898 26.8666 14.8898 31.1362 14.8898 35.4057C14.8898 36.4991 14.371 37.228 13.4891 37.4363C13.2815 37.4363 13.1259 37.4363 12.9184 37.4363C11.0507 37.4363 9.18294 37.4363 7.31522 37.4363C6.32948 37.4363 5.23998 36.8115 5.29186 35.4057C5.29186 31.9172 5.29186 28.4287 5.29186 24.9402C5.29186 24.003 5.29186 23.0657 5.29186 22.0765C5.13622 22.0765 5.03246 22.0765 4.87681 22.0765C3.89107 22.0765 2.90534 22.0765 1.9196 22.0765C0.778215 22.0765 0 21.3475 0 20.2021C0 18.2756 0 16.4012 0 14.4747C0 13.2771 0.778215 12.6003 1.97148 12.6003C2.95722 12.6003 3.89107 12.6003 4.87681 12.6003C5.03246 12.6003 5.13622 12.6003 5.29186 12.6003C5.29186 12.444 5.29186 12.3399 5.29186 12.2358C5.29186 11.0903 5.29186 9.94483 5.34374 8.85141C5.55127 5.46705 6.95205 2.75956 10.013 1.04134C10.9469 0.520671 11.9326 0.208269 13.0221 0.0520671C13.074 0.0520671 13.1778 0.0520671 13.2297 0C15.5124 0 17.7433 0 20.0261 0L19.9742 0.0520671ZM12.659 35.3536C12.659 35.3536 12.659 35.0412 12.659 34.885C12.659 30.4593 12.659 26.0336 12.659 21.5558C12.659 20.6186 13.0221 19.8897 14.2673 19.8897C15.6162 19.8897 17.017 19.8897 18.3659 19.8897C18.4696 19.8897 18.6253 19.8897 18.7809 19.8897V14.8391C18.7809 14.8391 18.4696 14.8391 18.3659 14.8391C16.9132 14.8391 15.4605 14.8391 14.0079 14.8391C13.2297 14.8391 12.7108 14.3705 12.7108 13.6416C12.7108 12.2358 12.7108 10.83 12.7627 9.37209C12.8665 7.91421 13.7485 6.977 15.1493 6.8208C16.2388 6.71666 17.3801 6.71666 18.5215 6.66459C18.6772 6.66459 18.8328 6.66459 18.9884 6.66459V2.13475C17.1207 2.13475 15.3049 2.13475 13.4891 2.29095C12.1402 2.39509 10.895 2.91576 9.80551 3.85297C8.1972 5.25878 7.57463 7.08113 7.47086 9.16382C7.41898 10.5696 7.47086 12.0275 7.47086 13.4333C7.47086 14.4226 7.00393 14.8912 6.0182 14.8912C4.87681 14.8912 3.68355 14.8912 2.54217 14.8912C2.43841 14.8912 2.28276 14.8912 2.179 14.8912V19.9417C2.179 19.9417 2.49029 19.9417 2.59405 19.9417C3.73543 19.9417 4.87681 19.9417 5.96631 19.9417C7.00393 19.9417 7.41898 20.4103 7.41898 21.3996C7.41898 21.5037 7.41898 21.6079 7.41898 21.712C7.41898 26.0856 7.41898 30.4593 7.41898 34.885C7.41898 35.0412 7.41898 35.1453 7.41898 35.3015H12.6071L12.659 35.3536Z" fill="#C2893B"/>
</svg>
