<svg width="24" height="24" viewBox="0 0 24 24" fill="none" xmlns="http://www.w3.org/2000/svg">
<path d="M2.01955 13.1615C1.80971 13.1615 1.63388 13.0896 1.49205 12.9458C1.35021 12.8019 1.2793 12.6238 1.2793 12.4113C1.2793 12.1986 1.35113 12.0205 1.4948 11.877C1.63846 11.7333 1.81655 11.6615 2.02905 11.6615H5.51955C5.73205 11.6615 5.91013 11.7334 6.0538 11.8773C6.19763 12.0211 6.26955 12.1993 6.26955 12.412C6.26955 12.6245 6.19763 12.8026 6.0538 12.9462C5.91013 13.0898 5.73205 13.1615 5.51955 13.1615H2.01955ZM5.3033 18.698C4.76796 18.1632 4.5003 17.5138 4.5003 16.75H3.18305C2.90505 16.75 2.68263 16.6458 2.5158 16.4375C2.34913 16.2292 2.2978 15.9923 2.3618 15.727L2.63505 14.6615H5.4448C6.07413 14.6615 6.60613 14.444 7.0408 14.009C7.4753 13.574 7.69255 13.0415 7.69255 12.4115C7.69255 12.1497 7.64671 11.9079 7.55505 11.6863C7.46338 11.4646 7.33746 11.2653 7.1773 11.0885H8.56005C9.19005 11.0885 9.72246 10.871 10.1573 10.436C10.5923 10.0012 10.8098 9.46883 10.8098 8.839C10.8098 8.20917 10.5923 7.67658 10.1573 7.24125C9.72246 6.80608 9.19005 6.5885 8.56005 6.5885H4.9138L5.1408 5.7385C5.22146 5.37433 5.40088 5.07692 5.67905 4.84625C5.95738 4.61542 6.28688 4.5 6.66755 4.5H16.7695C17.0644 4.5 17.3022 4.61383 17.483 4.8415C17.6637 5.069 17.7188 5.32508 17.6483 5.60975L17.0368 8.25H18.6348C18.9211 8.25 19.1923 8.314 19.4483 8.442C19.7045 8.57017 19.9154 8.74717 20.081 8.973L21.9175 11.4098C22.0817 11.6238 22.1871 11.8523 22.2338 12.0953C22.2806 12.3381 22.2823 12.5884 22.2388 12.8463L21.6023 16.027C21.5586 16.241 21.453 16.415 21.2853 16.549C21.1176 16.683 20.9271 16.75 20.7138 16.75H19.8848C19.8848 17.5128 19.6175 18.1618 19.083 18.697C18.5485 19.2323 17.8995 19.5 17.136 19.5C16.3725 19.5 15.7231 19.2327 15.1878 18.698C14.6526 18.1632 14.385 17.5138 14.385 16.75H10.0003C10.0003 17.5128 9.73305 18.1618 9.19855 18.697C8.66405 19.2323 8.01505 19.5 7.25155 19.5C6.48788 19.5 5.83846 19.2327 5.3033 18.698ZM4.01955 9.5885C3.80705 9.5885 3.62896 9.51658 3.4853 9.37275C3.34146 9.22892 3.26955 9.05075 3.26955 8.83825C3.26955 8.62558 3.34146 8.44742 3.4853 8.30375C3.62896 8.16025 3.80705 8.0885 4.01955 8.0885H8.51955C8.73205 8.0885 8.91013 8.16042 9.0538 8.30425C9.19763 8.44808 9.26955 8.62625 9.26955 8.83875C9.26955 9.05142 9.19763 9.2295 9.0538 9.373C8.91013 9.51667 8.73205 9.5885 8.51955 9.5885H4.01955ZM7.2503 18C7.5978 18 7.89296 17.8785 8.1358 17.6355C8.3788 17.3927 8.5003 17.0975 8.5003 16.75C8.5003 16.4025 8.3788 16.1073 8.1358 15.8645C7.89296 15.6215 7.5978 15.5 7.2503 15.5C6.9028 15.5 6.60763 15.6215 6.3648 15.8645C6.1218 16.1073 6.0003 16.4025 6.0003 16.75C6.0003 17.0975 6.1218 17.3927 6.3648 17.6355C6.60763 17.8785 6.9028 18 7.2503 18ZM17.135 18C17.4824 18 17.7775 17.8785 18.0205 17.6355C18.2635 17.3927 18.385 17.0975 18.385 16.75C18.385 16.4025 18.2635 16.1073 18.0205 15.8645C17.7775 15.6215 17.4824 15.5 17.135 15.5C16.7875 15.5 16.4923 15.6215 16.2493 15.8645C16.0063 16.1073 15.8848 16.4025 15.8848 16.75C15.8848 17.0975 16.0063 17.3927 16.2493 17.6355C16.4923 17.8785 16.7875 18 17.135 18ZM15.906 13.125H20.6445L20.783 12.4173L18.7888 9.75H16.6925L15.906 13.125Z" fill="#C2893B"/>
</svg>
